<?xml version="1.0" encoding="utf-8"?>
<!-- Generator: Adobe Illustrator 17.0.0, SVG Export Plug-In . SVG Version: 6.00 Build 0)  -->
<!DOCTYPE svg PUBLIC "-//W3C//DTD SVG 1.1//EN" "http://www.w3.org/Graphics/SVG/1.1/DTD/svg11.dtd">
<svg version="1.1" id="Capa_1" xmlns="http://www.w3.org/2000/svg" xmlns:xlink="http://www.w3.org/1999/xlink" x="0px" y="0px"
	 width="116px" height="105px" viewBox="0 0 116 105" enable-background="new 0 0 116 105" xml:space="preserve">
<path d="M58.958,89.692c-11.329,0.001-22.659,0.024-33.988-0.007c-7.152-0.02-9.719-2.512-9.739-9.498
	c-0.037-12.662-0.034-25.324,0-37.986c0.018-6.695,2.316-9.023,8.941-9.233c0.999-0.032,2.021-0.141,2.995,0.016
	c6.835,1.098,11.942-1.277,16.563-6.53c2.075-2.359,6.196-3.075,9.521-4.112c1.67-0.521,3.671,0.137,5.464-0.131
	c8.311-1.243,14.853,1.35,20.102,8.058c1.25,1.598,4.184,2.285,6.45,2.586c3.276,0.435,6.66-0.031,9.978,0.191
	c4.841,0.324,7.396,2.829,7.442,7.656c0.131,13.66,0.146,27.324,0.001,40.984c-0.057,5.349-3.046,7.948-8.744,7.984
	C82.284,89.743,70.621,89.691,58.958,89.692z M59.026,79.018c10.948-0.018,19.678-8.668,19.709-19.526
	c0.031-10.869-8.708-19.647-19.625-19.713c-11.144-0.067-20.065,8.827-19.944,19.882C39.286,70.544,47.999,79.036,59.026,79.018z
	 M94.898,45.445c1.271-2.184,2.615-3.475,2.531-4.667c-0.068-0.962-2.087-2.688-2.832-2.496c-1.219,0.315-2.824,1.853-2.921,2.989
	C91.589,42.304,93.295,43.488,94.898,45.445z"/>
<path d="M73.377,59.864c-0.204,8.111-6.827,14.457-14.838,14.218c-8.003-0.239-14.308-6.961-14.083-15.013
	c0.228-8.167,6.717-14.342,14.875-14.155C67.42,45.097,73.583,51.658,73.377,59.864z"/>
</svg>
