<?xml version="1.0" encoding="utf-8"?>
<!-- Generator: Adobe Illustrator 17.0.0, SVG Export Plug-In . SVG Version: 6.00 Build 0)  -->
<!DOCTYPE svg PUBLIC "-//W3C//DTD SVG 1.1//EN" "http://www.w3.org/Graphics/SVG/1.1/DTD/svg11.dtd">
<svg version="1.1" id="Capa_1" xmlns="http://www.w3.org/2000/svg" xmlns:xlink="http://www.w3.org/1999/xlink" x="0px" y="0px"
	 width="114px" height="113px" viewBox="0 0 114 113" enable-background="new 0 0 114 113" xml:space="preserve">
<path d="M56.835,8.291c26.766-0.11,48.608,21.54,48.849,48.419c0.241,26.925-21.75,49.011-48.771,48.981
	C30.145,105.663,8.311,83.818,8.281,57.037C8.252,30.281,30.044,8.402,56.835,8.291z M99.201,57.183
	c0.02-23.671-18.469-42.423-41.894-42.489c-23.582-0.066-42.484,18.502-42.619,41.868c-0.139,23.856,18.426,42.602,42.248,42.659
	C80.586,99.279,99.181,80.783,99.201,57.183z"/>
<path d="M45.13,30.981c-0.675-1.932-1.087-3.109-1.611-4.607c9.289,0,18.347,0,27.626,0c-0.346,1.351-0.685,2.676-1.078,4.213
	c8.734-2.754,12.234,0.278,11.07,9.289c-0.666,5.152-3.145,9.199-7.245,12.611c-4.314,3.589-8.257,7.691-11.974,11.911
	c-2.795,3.172-1.225,12.285,2.253,15.821c4.13,4.198,4.553,5.689,3.356,12.261c-6.704,0-13.454,0-20.33,0
	c-1.161-4.92-0.369-8.852,3.361-12.337c5.111-4.776,4.976-13.331-0.015-18.252c-3.772-3.719-8.244-6.902-11.299-11.124
	c-2.802-3.871-5.211-8.664-5.845-13.316C32.424,30.3,37.018,27.791,45.13,30.981z M41.143,51.078
	c0.653-5.653,1.059-10.37,1.796-15.034c0.372-2.355,0.632-4.845-2.248-4.846c-1.67-0.001-4.366,1.75-4.832,3.258
	C33.92,40.738,36.454,45.959,41.143,51.078z M73.65,49.87c5.004-3.43,7.7-11.882,4.945-16.585c-0.729-1.244-3.129-1.987-4.763-1.99
	c-0.662-0.001-1.961,2.633-1.877,4.001C72.248,40.061,73.02,44.797,73.65,49.87z"/>
</svg>
