<?xml version="1.0" encoding="utf-8"?>
<!-- Generator: Adobe Illustrator 17.0.0, SVG Export Plug-In . SVG Version: 6.00 Build 0)  -->
<!DOCTYPE svg PUBLIC "-//W3C//DTD SVG 1.1//EN" "http://www.w3.org/Graphics/SVG/1.1/DTD/svg11.dtd">
<svg version="1.1" id="Capa_1" xmlns="http://www.w3.org/2000/svg" xmlns:xlink="http://www.w3.org/1999/xlink" x="0px" y="0px"
	 width="121px" height="120px" viewBox="0 0 121 120" enable-background="new 0 0 121 120" xml:space="preserve">
<path d="M27.038,93.408c0.337-0.899,0.632-1.817,1.018-2.695c1.936-4.398,2.416-7.875-1.665-12.168
	c-10.096-10.62-6.64-27.061,6.605-34.534c13.898-7.841,33.215-7.549,45.887,3.744c10.136,9.034,11.138,24.764-3.234,34.831
	c-8.956,6.273-19.196,7.656-29.974,5.801c-1.831-0.315-3.99,0.532-5.843,1.245c-4.087,1.575-8.075,3.407-12.104,5.134
	C27.499,94.313,27.269,93.861,27.038,93.408z"/>
<path d="M52.089,31.849c2.37-0.688,5.014-1.819,7.761-2.191c12.871-1.745,25.083-1.175,35.238,8.794
	c6.692,6.57,8.084,17.182,4.291,24.072c-3.373,6.128-1.75,11.199-0.374,16.796c0.348,1.417,0.995,2.76,1.662,4.562
	c-5.506,0.37-9.634-2.323-13.511-5.394c-0.495-0.392-0.315-2.472,0.258-3.254c12.045-16.47-0.178-34.05-14.905-39.086
	C66.009,33.925,58.98,33.249,52.089,31.849z"/>
</svg>
