<?xml version="1.0" encoding="utf-8"?>
<!-- Generator: Adobe Illustrator 17.0.0, SVG Export Plug-In . SVG Version: 6.00 Build 0)  -->
<!DOCTYPE svg PUBLIC "-//W3C//DTD SVG 1.1//EN" "http://www.w3.org/Graphics/SVG/1.1/DTD/svg11.dtd">
<svg version="1.1" xmlns="http://www.w3.org/2000/svg" xmlns:xlink="http://www.w3.org/1999/xlink" x="0px" y="0px"
	 width="126.667px" height="82px" viewBox="0 0 126.667 82" enable-background="new 0 0 126.667 82" xml:space="preserve">
<g id="Capa_1" display="none">
	
		<image display="inline" overflow="visible" width="120" height="120" xlink:href="logo_behobia2.png"  transform="matrix(1 0 0 1 2.6667 -17)">
	</image>
</g>
<g id="Capa_2">
	<path fill="#FFA200" d="M70.35,20.338c7.201,0.229,11.442,5.373,12.029,9.022c0.57,3.542,0.649,3.53-0.116,4.28
		c-1.053,1.033-4.839,0.91-5.899-0.116c-1.23-1.19-0.152-4.58-3.47-5.899c-2.719-1.08-5.493-1.248-7.403,0
		c-2.15,1.404-2.892,3.933-2.545,5.436c0.347,1.504,4.742,4.164,9.831,5.089c5.089,0.925,9.022,4.395,10.41,8.675
		c1.388,4.28,0.605,7.396-0.116,9.716c-0.807,2.598-2.198,6.362-7.865,7.518c-5.668,1.157-8.599,0.769-11.219-0.231
		c-2.655-1.014-6.593-3.47-8.097-7.981c-1.504-4.511-1.544-5.13-0.231-5.668c1.339-0.549,4.648-1.128,5.783-0.231
		c1.725,1.362,1.157,5.899,4.742,7.403c3.586,1.504,5.321,0.81,7.403,0c2.082-0.81,5.552-4.974,3.239-7.865
		c-2.313-2.892-7.75-4.858-12.376-5.899c-4.627-1.041-7.634-5.899-8.328-9.716c-0.694-3.817,1.619-9.369,4.395-11.335
		S67.832,20.258,70.35,20.338z"/>
	<path fill="#FFA200" d="M103.892,20.338c7.201,0.229,11.442,5.373,12.029,9.022c0.57,3.542,0.649,3.53-0.116,4.28
		c-1.053,1.033-4.839,0.91-5.899-0.116c-1.23-1.19-0.152-4.58-3.47-5.899c-2.719-1.08-5.493-1.248-7.403,0
		c-2.15,1.404-2.892,3.933-2.545,5.436c0.347,1.504,4.742,4.164,9.831,5.089c5.089,0.925,9.022,4.395,10.41,8.675
		c1.388,4.28,0.605,7.396-0.116,9.716c-0.807,2.598-2.198,6.362-7.865,7.518c-5.668,1.157-8.599,0.769-11.219-0.231
		c-2.655-1.014-6.593-3.47-8.097-7.981s-1.544-5.13-0.231-5.668c1.339-0.549,4.648-1.128,5.783-0.231
		c1.725,1.362,1.157,5.899,4.742,7.403c3.586,1.504,5.321,0.81,7.403,0c2.082-0.81,5.552-4.974,3.239-7.865
		c-2.313-2.892-7.75-4.858-12.376-5.899c-4.627-1.041-7.634-5.899-8.328-9.716c-0.694-3.817,1.619-9.369,4.395-11.335
		C96.837,20.569,101.375,20.258,103.892,20.338z"/>
	<polygon fill="#FFFFFF" points="49.732,15.882 39.322,66.543 46.323,66.528 56.733,15.867 	"/>
</g>
<g id="Capa_3">
	<path fill="#FFA200" d="M31.949,41.736c5.205-3.354,9.022-14.689-1.619-20.588c-3.701-0.463-21.398-0.347-21.398-0.347v43.027
		H29.52C34.147,63.481,47.911,50.295,31.949,41.736z M15.409,27.509l11.566-0.116c4.742,3.007,4.164,8.906,0,11.104l-11.566-0.116
		V27.509z M27.901,57.466l-12.492,0.116l0.116-12.145l12.145,0.116C32.759,49.37,31.255,54.922,27.901,57.466z"/>
</g>
</svg>
