<?xml version="1.0" encoding="utf-8"?>
<!-- Generator: Adobe Illustrator 17.0.0, SVG Export Plug-In . SVG Version: 6.00 Build 0)  -->
<!DOCTYPE svg PUBLIC "-//W3C//DTD SVG 1.1//EN" "http://www.w3.org/Graphics/SVG/1.1/DTD/svg11.dtd">
<svg version="1.1" id="Capa_1" xmlns="http://www.w3.org/2000/svg" xmlns:xlink="http://www.w3.org/1999/xlink" x="0px" y="0px"
	 width="120px" height="120px" viewBox="0 0 120 120" enable-background="new 0 0 120 120" xml:space="preserve">
<path d="M60.913,14.165C87.98,14.829,108.529,35.67,108.4,61.656c-0.14,28.156-21.965,47.839-47.736,47.765
	c-26.701-0.077-47.378-21.217-47.43-48.004C13.183,35.526,35.077,14.076,60.913,14.165z M98.983,61.926
	c0.027-21.432-16.905-38.556-38.18-38.612c-21.118-0.055-38.519,17.342-38.49,38.482c0.029,21.069,17.068,38.145,38.105,38.188
	C82.041,100.027,98.956,83.335,98.983,61.926z"/>
<path d="M51.856,41.122c9.245,6.911,18.104,13.533,27.543,20.589c-9.169,6.898-18.008,13.546-27.543,20.719
	C51.856,68.402,51.856,55.155,51.856,41.122z"/>
</svg>
